<?xml version="1.0" standalone="no"?>
<!DOCTYPE svg PUBLIC "-//W3C//DTD SVG 20010904//EN"
 "http://www.w3.org/TR/2001/REC-SVG-20010904/DTD/svg10.dtd">
<svg version="1.0" xmlns="http://www.w3.org/2000/svg"
 width="260.000000pt" height="260.000000pt" viewBox="0 0 260.000000 260.000000"
 preserveAspectRatio="xMidYMid meet">
<metadata>
Created by potrace 1.11, written by Peter Selinger 2001-2013
</metadata>
<g transform="translate(0.000000,260.000000) scale(0.100000,-0.100000)"
fill="#000000" stroke="none">
<path d="M1170 2584 c-14 -2 -56 -9 -95 -15 -103 -16 -247 -65 -355 -119 -355
-179 -600 -501 -686 -902 -25 -116 -25 -380 0 -496 113 -523 495 -905 1018
-1018 116 -25 380 -25 496 0 523 113 905 495 1018 1018 25 116 25 380 0 496
-56 260 -175 482 -355 663 -180 179 -405 300 -661 355 -71 15 -327 27 -380 18z
m428 -1141 c-3 -450 -6 -514 -21 -560 -42 -125 -150 -202 -295 -211 -153 -9
-258 36 -318 136 -32 52 -54 136 -54 203 0 41 -1 41 101 55 l46 6 11 -65 c22
-133 69 -182 177 -182 94 0 156 46 175 131 5 21 10 254 10 517 l0 477 86 0 85
0 -3 -507z"/>
</g>
</svg>
